<svg width="131" height="78" version="1.1" id="Layer_1" xmlns="http://www.w3.org/2000/svg" x="0" y="0" viewBox="0 0 2000 909.9" style="enable-background:new 0 0 2000 909.9" xml:space="preserve"><style>.st0{fill:#23225b}</style><g id="XMLID_1_" transform="translate(0 -92)"><g id="XMLID_2678_" transform="translate(114.102 3.356)"><path id="XMLID_2944_" class="st0" d="M1570.9 170.1c2.2-4 5.5-7 8.8-10 1.2-3.9 4.4-4.2 7.6-4.5h12.5c1.2 0 2.6 0 3.9.2 37.6 7.5 63.1 30.3 80.1 63.9 2.1 4.2 4.5 8.5 6.2 12.8 1.7 4.4 3.9 4.5 7.5 2 17.2-11.6 33.5-24.4 48.9-38.4 7.3-6.7 14.7-13.3 21.8-20.3 5.4-5.2 9.7-11.3 14.4-17.1 2.9-3 5.9-5.9 10.1-7 3.9-1.4 7.8-1.5 12-.6 4 1.9 6.2 5.1 8.1 9 4.5 15.9.9 30.9-5.6 45.3-10.1 22.2-25.9 40-44.1 55.7-14.6 12.7-30.6 23.4-47.9 32.1-4.2 2.1-6.2 4.5-5.4 9.7 10.5 57.2 14.4 115.2 22.8 172.6 2.6 17.9 5.7 35.6 13.3 52.3 7.2 15.7 18.3 27.5 35.9 30.6 20.2 3.6 36.6-3.9 49.3-19.7 7-8.7 10.6-19.2 13.3-29.9 1.5-6 3-12.1 6.7-17.3 2.4-2.7 5.2-4.6 9-4.9 3.5 0 6.8-.1 10.3.1 4.6.9 8.3 3.1 11 7 5.6 8.8 5.1 18.8 3.6 28.4-9.1 55.3-42 90.8-93.4 110.7-6.6 2.5-13.4 4-20.3 5.5-3 .1-6 .5-8.8 1.4-2.1.4-4.1.6-6.2.4-3.1-.5-6.2-.5-9.3 0-2.1.2-4.1 0-6.2-.4-2.6-.6-5.1-1.6-7.8-1-3.6-.1-7.1-1-10.5-2.5-3-2.4-6.8-3-10.2-4.5-17.4-7.2-30.4-19.8-41.5-34.7-18.9-30-26-63.9-31.1-98.2-5.5-36.9-9-74.1-13.7-111.1-2-16.1-4.4-32-6.8-48.1-1.2-8.1-1.5-8.1-9.7-6.4-13.6 3-27.3 5-41.3 4.2-11.6-.6-22.5-3.1-32.1-10.2-1.1-1.2-2.5-2.2-3.6-3.6-2.2-2.6-4.2-5.4-4.6-8.8-.5-12.7 2.1-16.4 13.8-19.9 2.4 0 4.6-.5 6.8-1.1 17.9-2.5 35.4-6.8 52.7-12.2 7-2.2 7.3-2.9 5.5-9.7-6.5-24.4-14.8-47.9-29.4-68.9-2.1-3.9-4-7.8-5.7-12-1-2.9-3.4-5.7-.7-9-.5-3.7-.8-7.8 0-11.9z"/><path id="XMLID_2895_" class="st0" d="M1176 200c-7.9 0-15.8.5-23.7 1.2-36 3.4-69.4 14.4-99.7 34-46.6 30-78.1 72.5-99.4 122.9-10 23.4-16.8 47.7-22.8 72.3-2.4 9.6-2.4 9.5-12.1 6.3-14.2-4.6-27.6-11.2-40.3-19.1-4.6-2.7-9.1-5.9-14.6-6.7h-7.1c-4.9.6-7.5 4.4-10.3 7.7-3.5 6-3.7 12.2-1.9 18.7 3.1 11.3 10.3 19.7 19.2 26.9 13.8 11.2 29.8 17.8 46.8 22.3 8.3 2.2 8.3 2.2 6.8 10.6-10.8 58-20.8 116.3-32.1 174.3-10.5 52.9-21.3 105.7-39.5 156.6-9.5 26.5-21.4 51.7-38.9 74.1-18.2 23.4-41.5 37.7-70.8 41.8-6.6 1.6-13.2 1-19.9.7-4.4-.6-8.2 2.1-12.5 1.6-2.9.5-5.6 1.1-6.7 4.2-2.9 2-6.6 3-8.6 6.2-1.2 1.2-1.4 3.1-2.5 4.5-1.1.7-.9 2-1.1 3-2 3.7-1.2 7.7-1.2 11.5-.1 4.5 2 8.2 4.4 11.7 6 5 12.7 8.3 20.3 10.1 6.1 1.4 12.3.6 18.4.9 1 .1 2 0 3-.2 2.4-.7 4.9-1.4 7.5-.9 1.4.1 2.6-.1 3.9-.4 2.4-.9 4.9-1.1 7.5-1.2 21.8-4.2 42.5-11.7 61.5-23 47.7-28.1 84.7-67.1 113.6-113.9 22.4-36.4 36.2-76.3 46.8-117.5 15.1-58.9 24.3-119 35.4-178.8 3.9-20.5 7.6-41.2 11.6-61.8.6-3.1.7-6.8 5.1-7.6 11.3-1.9 22.8-3.2 34.1-5 .4 1.2.1 1.9-.1 2.4-15.9 27.3-21.3 56.7-19.1 87.9 1.7 24 8.2 46.6 18.4 68.1 14.6 30.8 35.6 56.7 61.3 79.1 15.9 13.8 33.5 24.9 52.2 34.4 10.3 5.2 21.4 8.7 32.1 13.1 2.9.9 5.7 1.6 8.7 1.7 2.4-.5 4.5.6 6.7 1 3 .5 6 .6 9 0 2.2-.6 4.4-1.4 6.6-1.5 1.2-.2 2.4-.9 3.6-1.2 8.7-2.4 16.8-6.1 24.7-10.2 51.7-26.8 90.6-66.1 115.4-119.2 11.8-25.3 18.7-51.9 19.1-79.8.4-29.6-6.8-57.7-22-83.2-19.8-33.1-49.2-51.1-87.9-53.4h-11.3c-4.1-.4-8 2-12.2 1.2-2.7-.1-5.2.7-7.7 1.4-2.5 1-5.1 1.7-7.8 2.1-2.7.2-5.1 1.2-7.3 2.7-1.5 1-3.1 2.1-4.9 2.7-.5.2-.9.5-1.4.7-1.2.6-2.4 1.2-3.6 1.7-.5.2-.9.5-1.4.7-2 1-3.6 2.6-5.7 3.1-1.5.7-2.9 1.7-4.1 3-1.5 1.7-3.1 3.1-4.9 4.6-6.2 5.2-6.2 5.2-13.1.3-1-.7-2-1.2-3.1-1.7-5.6-2.6-11.2-5.5-17.2-7.3-.5-.2-1.1-.4-1.7-.4-3.4-.6-6.6-1.5-9.8-2.4-1-.2-1.9-.4-2.9-.3-3 .2-5.9-.5-8.7-1.2-3-.6-6.1-.6-9.2 0-3.2 1-6.5 1.6-9.8 1.1-1.4-.2-2.6 0-3.9.2-2.6 1-5.2 1.2-8 1.2-.6.1-1.1.1-1.7.4-2 .7-4 .7-6.1.6-.9 0-1.9.1-2.7.4-5 .9-10 2-15.1 2-1.4-.1-2.6.1-3.9.4-3 1-6.1 1.1-9.2 1.1-.6.1-1.2.1-1.9.4-2.7 1-5.5.9-8.3.5-1.4 0-2.6.2-4 .5-9.1.9-18.2 3.2-27.4 1.9-3-.2-6-.1-9 .4-2.7-.1-7.5 4.5-7.1-3 .1-.6.2-1.1.2-1.7 0-3.4 1.5-6.5 2.4-9.6.7-3.6 1.9-7.2 2.6-10.8.2-3.1 1.4-6.1 2.4-9.1 2.1-9.3 4.7-18.6 7.5-27.8 1-3.9 1.7-7.7 3.4-11.5.9-2.5 1.6-5.1 2.5-7.6 1.1-4.1 2.9-8.1 4.6-12 .1-.5.4-1 .5-1.6.2-1.6 1.1-3.1 1.9-4.6.2-.5.5-1.1.6-1.6 1-2.6 2-5.2 3.5-7.6 1.1-2.5 2.4-5 3.6-7.3.7-1.7 1.6-3.5 2.7-5 2.6-4.6 5.5-9 8.5-13.3 2.1-2.9 3.6-6.1 6.1-8.6.9-1 1.7-2 2.6-3.1 1.4-2 3-3.9 4.7-5.6.6-.6 1.1-1.2 1.6-2 3.7-5.4 8.6-9.6 13.7-13.7.5-.2 1-.6 1.4-1 4.4-4.1 9.1-7.6 14.3-10.5 4.6-2.7 9.5-5.1 14.4-7.2 1.7-.9 3.5-2 5.5-2.2 3.1-.9 6.1-1.7 9.1-2.6 1.9-.7 3.7-1.2 5.7-1.2.5-.1 1.1-.2 1.6-.4 2-.7 4-.6 6-.5 1.2-.1 2.4-.2 3.6-.5 4.4-1.4 8.6-1.4 12.8.2 2.7.7 5.5 1.5 8.3 1.5 5.9-.4 10.7 2.2 15.3 5.5 3.6 2.4 6.8 5.1 10.6 7.5 4.2 1.6 6.3 5.5 9 8.7 7.2 10.3 15.6 18.7 29.5 18.1 2-.2 4-.2 5.9.1 13.8-.4 24.4-9.6 29.1-25.5 0-2.2.6-4.4 1.1-6.6.2-1.6.2-3.2 0-4.9-.6-2.1-1.1-4.4-1.1-6.6-1.7-7.3-5.6-13.2-10.7-18.7-13.2-14.3-29.6-22.9-48.1-28.5-17.2-4.9-34.4-6.8-51.7-6.8zm74.1 307.1c20.7-.2 40 13.4 47.9 38 3.5 11 5.1 22.4 5.1 39.7-1.1 30.3-14.7 61.5-35.5 90-9.6 13.2-20.8 24.7-33.6 34.7-7.1 5.5-14.3 6.3-21.8 1.4-41.1-27.9-71.1-63.8-81.6-113.4-3.4-15.8-2.7-31.9 2.2-47.3 10-31.1 44.7-44.1 73.1-27.3 2.7 1.6 4.5 3 7.7-.1 11.2-10.5 24.1-15.6 36.5-15.7z"/><path id="XMLID_2894_" d="M1473.6 732.8h-14.9c-1.4.2-2.6.1-3.9-.6-1.1-.6-2.2-1.6-3.5-2.2-1.1-.9-2.4-1.7-3.4-2.7-2.2-2.5-3.5-5.4-3.7-8.8-1-17.2-.2-34.4-.5-51.7-.9-56.8-10.7-111.8-32.2-164.5-7.1-17.6-15.9-34.2-26.8-49.8-4-5.9-7.5-12-10.3-18.4-2.9-6.7-4.1-13.6-1.2-20.5 1.6-3.4 3.6-6.5 6.1-9.3 5.9-4.6 12.6-6.6 19.8-6.8 3.4.2 6.8 0 10.2.1 4.2.6 8.5.9 12.5 2.4 14.1 4 26.3 11.2 36.2 21.8 3.2 3.5 4.9 2.7 6.1-1.6 2.5-9.1 6.8-17.3 11.5-25.4 7.5-11 16.8-20 27.9-27.3 22.4-12.5 45.7-14.4 69.4-4.1 19.3 8.5 29.3 24.5 33 44.6 3 16.6 1 32.6-6.4 47.9-5 10.5-12.6 18.6-23 23.5-13.7 6.5-24.4 1.1-27.4-13.7-1.2-6.5-1.4-13.2-4.2-19.3s-7.1-10.2-14.1-10.8c-7.3-.6-12.9 2.7-16.7 8.8-6.7 11.1-9.5 23.4-9 36.2.9 22.4 7.2 43.7 12.3 65.2 5.9 24.8 11.8 49.6 14.9 75 3.1 25.2 1.9 49.7-10 72.7-3 5.7-6.6 11.1-10.7 15.9-3 2.6-5.9 5.4-8.5 8.3-4.7 4.6-10.3 8-15.8 11.5-4.3 1.5-8.3 5.4-13.7 3.6z" style="fill:#23215b"/><path id="XMLID_2824_" class="st0" d="M473.9 233.5c-3.7 2-7.6 4.1-11.3 6.1-4.5 1.1-9.1 1-13.6.1-2.3-.5-2-.1-3.8-.8-5.2-1.3-10.5-4.9-14.1-9.2-5.9-7-10.5-14.9-16.3-21.9-23.2-27.3-52.4-44.1-87.3-51.7-27.1-6-54.4-6-81.6-1.4-30.3 5-57.9 16.7-83.1 34.1-43 29.6-71.2 70.7-90.8 118.3-17.5 42.7-27.3 87-30.7 132.9-3.5 46.7 1 92.4 17.4 136.6C76.8 625 106.8 664 152.1 690c31.6 18.2 65.7 28 102.6 28.4 32.4.4 63-6.2 92.1-20.3 4.7-2.2 9.7-3.6 14.9-4.4 7.6-1 14.7.5 19.4 7.1 4.7 6.6 5 13.9 1.9 21.3-2.5 5.9-6.7 10.5-11.6 14.4-3.4 2.9-6.7 5.5-10.6 7.7-27.8 17.3-58.4 26-90.4 30.8-9.8 1.5-19.7 2.4-29.6 2-3.1-.1-6.1.6-9.2 1.4-4.7.7-9.5.7-14.3 0-6.6-2.1-13.4-1-20.2-1.4H195c-2.6-.5-5.1-1.6-7.7-1-1.4 0-2.6-.1-4-.4-2.9-.9-5.6-1.5-8.6-.7-3 .2-5.9-.5-8.7-1.4-2.1-.7-4.1-1.6-6.4-1.1-2.2 0-4.5-.5-6.5-1.4-2-1-4.1-1.5-6.4-1.6-47.7-11.2-91.5-31.3-130.6-61.2C-35 669.1-71.4 619-93.4 558.6c-15.8-43.5-22.8-88.4-20.2-134.5 4.6-81.7 31.9-154.9 86.2-216.8 40.8-46.4 91.5-78.8 150-99 27.8-9.6 56.4-15.9 85.7-18.3 66.5-5.4 130.4 4.6 190.4 34.7 18.9 9.5 36.6 21.2 51.9 36.1 5 6.2 11.3 11.2 16.6 17.2 1.1 2 2.6 3.7 4.1 5.4 1.9 3.4 5.9 5.7 5.1 10.5 1.5 3.7 3 7.6 4.5 11.3 1.7 10.3.6 20-7 28.3z"/><path id="XMLID_2720_" class="st0" d="M594.6 740.4c-8.6-.2-14.7-5-19.8-11.3-2-1.6-2.6-3.9-3.1-6.1-1.7-10.2 2.1-19.2 5.9-28.1 13.1-31 25.2-62.4 33.7-94.9 6.1-22.9 10.8-46.1 10.8-69.9 0-7.3-1.4-14.4-3.9-21.3-5.4-14.7-21.2-19.8-34-10.8-8.7 6-13.6 14.9-17.1 24.7C559.7 544 554.8 566 549 588c-5.9 21.8-12.1 43.6-21.5 64.2-9.7 21.2-23.3 39.2-44 51.1-5.1 4.1-11.6 5.2-17.4 7.8-3.9.7-7.6 1.5-11.5 2.1-1 .1-2 .5-3 .6-5 .1-10-.1-14.9.2-1.6.2-3.4-.1-5-.4-18.1-3.7-24.8-16.3-17.8-33.4 2.1-5.2 5.1-10 7.7-14.8 30.3-55 49.2-113.7 56.7-175.9 3.5-29.4 1.7-58.8-4.1-87.8-1.4-7-2.9-13.9-.1-20.8 1.9-4.7 4.4-9.1 10.7-8.3 11.6-2 21.9 1.7 32.1 6.4 1.2.5 1.2.5 2.1 1.1 2 .9 2 .8 4.5 2 3.7 1.9 6 3.2 8.6 5.5 12.8 11.3 20.5 25.8 25.4 41.8 1.9 6 1.9 6.1 6.8 2 16.8-13.8 35.6-22.4 57.7-22.9 2 0 4.2-.7 5.7 1.2 12 1.2 23.8 3.1 35 7.5 27.8 16.7 38.6 32.4 44.2 64.2 2.7.2 3.1-2.4 4.2-3.7 18.6-23.8 42.3-37.9 73.2-36.2 34.5 1.9 57.7 20.5 71.3 51.5 11.8 26.8 13.2 55 11.1 83.5-2.7 36.6-9.5 72.6-22.2 107.2-5.2 14.4-11.6 28.3-19.8 41.3-13.4 21.3-31.1 37-56.3 42.7-7 1.5-14.1 1.2-21 .1-7.5-.5-13.4-3.5-17.2-10.2-3.4-1.7-3.2-5-3.6-8.1-.7-8.8 2.1-16.7 5.6-24.5 16.9-38.2 30.4-77.6 38.7-118.7 2.6-13.1 4.1-26.3 5.1-39.5.7-9.8-.5-19.5-4.1-28.8-5.5-13.9-18.2-18.3-31.5-11.2-9.1 4.9-14.2 13.1-18.4 21.9-3.9 8.1-5.9 16.8-8.2 25.4-8.6 32.6-15.1 65.9-26.4 97.9-8.3 23.7-21.8 43.2-42.1 58-5.5 4-11.2 8-18.3 8.7-3-.4-5.5 1.5-8.5 1.6-.6.1-1.4.2-2 .4-2.4 1.1-5.1-.2-7.6 1-2 1.2-4 1.2-6.1 0-2.3-1.7-5.4 0-8.2-1.3z"/><path id="XMLID_2697_" class="st0" d="M289.9 317.5c-7-.1-14 .2-21.1.7-2.5 1.2-5.5-.4-8 1.1-1.9 1.4-4.4-.4-6.2 1.2-.7.4-1.5.9-2.2 1-27.9 6.2-52.7 18.9-73.1 38.8-43.1 42.1-62.8 93.6-59.3 153.7 2.4 38.2 16.8 71.6 44.2 98.7 27.9 27.6 62.5 40.6 101.2 43 50.3 3.1 93.8-13.3 128.3-49.8 43.2-45.8 60.4-101 49.9-163.1-9.2-54.7-39.8-93.6-92.4-114.1-19.8-7.6-40.4-10.9-61.3-11.2zm14.9 53.3c20 .1 37.5 13.3 44.2 36.3 3.5 11.7 4.7 23.7 4.5 35.7-2.4 43.7-11 85.8-35.7 123-9.7 14.6-21.8 26.6-38.5 33.1-22.9 8.8-46.7-.1-58.3-21.8-7.5-14.1-10.1-29.4-9.7-45.1 1.1-44.2 13.1-85.3 36.1-123 7.5-12.1 16.9-22.5 29.3-30 9.3-5.5 19-8.2 28.1-8.2z"/></g></g></svg>